<svg width="20" height="25" viewBox="0 0 20 25" fill="none" xmlns="http://www.w3.org/2000/svg">
<g opacity="0.7">
<g clip-path="url(#clip0_721_988)">
<path d="M6.95129 8.99776L5.8905 12.1438L7.04119 9.10562L6.95129 8.99776ZM6.95129 8.99776L5.8905 12.1438L7.04119 9.10562L6.95129 8.99776ZM6.95129 8.99776L5.8905 12.1438L7.04119 9.10562L6.95129 8.99776ZM6.95129 8.99776L5.8905 12.1438L7.04119 9.10562L6.95129 8.99776ZM6.95129 8.99776L5.8905 12.1438L7.04119 9.10562L6.95129 8.99776ZM11.1563 11.2742C11.1106 11.2629 11.0639 11.2561 11.0169 11.2539C10.9602 11.2472 10.9028 11.2472 10.8461 11.2539C10.7772 11.2655 10.709 11.2805 10.6416 11.2989C10.5692 11.3244 10.4935 11.3395 10.4168 11.3438C10.3353 11.3461 10.2542 11.3552 10.1741 11.3708C10.0901 11.3837 10.0069 11.4009 9.92466 11.4225C9.88419 11.4336 9.84441 11.4471 9.80554 11.4629L9.78082 11.4764C9.77358 11.4801 9.7668 11.4846 9.76059 11.4899C9.74726 11.5044 9.73661 11.5211 9.72913 11.5393C9.69546 11.6178 9.6684 11.699 9.64822 11.782C9.628 11.8629 9.61002 11.9438 9.59428 12.018C9.57855 12.0921 9.56282 12.1663 9.55383 12.2427C9.54181 12.3373 9.53655 12.4327 9.5381 12.5281C9.55893 12.3938 9.5959 12.2625 9.64822 12.1371C9.77857 11.8472 9.85723 11.6449 9.85723 11.6449C9.96445 11.6618 10.0736 11.6618 10.1809 11.6449C10.3157 11.6067 10.4798 11.4405 10.6438 11.4449C10.765 11.4525 10.8866 11.4396 11.0034 11.4067C11.0796 11.3859 11.1518 11.3525 11.2169 11.3079L11.1563 11.2742ZM6.95129 8.99776L5.8905 12.1438L7.04119 9.10562L6.95129 8.99776ZM11.1563 11.2742C11.1106 11.2629 11.0639 11.2561 11.0169 11.2539C10.9602 11.2472 10.9028 11.2472 10.8461 11.2539C10.7772 11.2655 10.709 11.2805 10.6416 11.2989C10.5692 11.3244 10.4935 11.3395 10.4168 11.3438C10.3353 11.3461 10.2542 11.3552 10.1741 11.3708C10.0901 11.3837 10.0069 11.4009 9.92466 11.4225C9.88419 11.4336 9.84441 11.4471 9.80554 11.4629L9.78082 11.4764C9.77358 11.4801 9.7668 11.4846 9.76059 11.4899C9.74726 11.5044 9.73661 11.5211 9.72913 11.5393C9.69546 11.6178 9.6684 11.699 9.64822 11.782C9.628 11.8629 9.61002 11.9438 9.59428 12.018C9.57855 12.0921 9.56282 12.1663 9.55383 12.2427C9.54181 12.3373 9.53655 12.4327 9.5381 12.5281C9.55893 12.3938 9.5959 12.2625 9.64822 12.1371C9.77857 11.8472 9.85723 11.6449 9.85723 11.6449C9.96445 11.6618 10.0736 11.6618 10.1809 11.6449C10.3157 11.6067 10.4798 11.4405 10.6438 11.4449C10.765 11.4525 10.8866 11.4396 11.0034 11.4067C11.0796 11.3859 11.1518 11.3525 11.2169 11.3079L11.1563 11.2742ZM6.95129 8.99776L5.8905 12.1438L7.04119 9.10562L6.95129 8.99776ZM11.1563 11.2742C11.1106 11.2629 11.0639 11.2561 11.0169 11.2539C10.9602 11.2472 10.9028 11.2472 10.8461 11.2539C10.7772 11.2655 10.709 11.2805 10.6416 11.2989C10.5692 11.3244 10.4935 11.3395 10.4168 11.3438C10.3353 11.3461 10.2542 11.3552 10.1741 11.3708C10.0901 11.3837 10.0069 11.4009 9.92466 11.4225C9.88419 11.4336 9.84441 11.4471 9.80554 11.4629L9.78082 11.4764C9.77358 11.4801 9.7668 11.4846 9.76059 11.4899C9.74726 11.5044 9.73661 11.5211 9.72913 11.5393C9.69546 11.6178 9.6684 11.699 9.64822 11.782C9.628 11.8629 9.61002 11.9438 9.59428 12.018C9.57855 12.0921 9.56282 12.1663 9.55383 12.2427C9.54181 12.3373 9.53655 12.4327 9.5381 12.5281C9.55893 12.3938 9.5959 12.2625 9.64822 12.1371C9.77857 11.8472 9.85723 11.6449 9.85723 11.6449C9.96445 11.6618 10.0736 11.6618 10.1809 11.6449C10.3157 11.6067 10.4798 11.4405 10.6438 11.4449C10.765 11.4525 10.8866 11.4396 11.0034 11.4067C11.0796 11.3859 11.1518 11.3525 11.2169 11.3079L11.1563 11.2742ZM6.95129 8.99776L5.8905 12.1438L7.04119 9.10562L6.95129 8.99776ZM11.1563 11.2742C11.1106 11.2629 11.0639 11.2561 11.0169 11.2539C10.9602 11.2472 10.9028 11.2472 10.8461 11.2539C10.7772 11.2655 10.709 11.2805 10.6416 11.2989C10.5692 11.3244 10.4935 11.3395 10.4168 11.3438C10.3353 11.3461 10.2542 11.3552 10.1741 11.3708C10.0901 11.3837 10.0069 11.4009 9.92466 11.4225C9.88419 11.4336 9.84441 11.4471 9.80554 11.4629L9.78082 11.4764C9.77358 11.4801 9.7668 11.4846 9.76059 11.4899C9.74726 11.5044 9.73661 11.5211 9.72913 11.5393C9.69546 11.6178 9.6684 11.699 9.64822 11.782C9.628 11.8629 9.61002 11.9438 9.59428 12.018C9.57855 12.0921 9.56282 12.1663 9.55383 12.2427C9.54181 12.3373 9.53655 12.4327 9.5381 12.5281C9.55893 12.3938 9.5959 12.2625 9.64822 12.1371C9.77857 11.8472 9.85723 11.6449 9.85723 11.6449C9.96445 11.6618 10.0736 11.6618 10.1809 11.6449C10.3157 11.6067 10.4798 11.4405 10.6438 11.4449C10.765 11.4525 10.8866 11.4396 11.0034 11.4067C11.0796 11.3859 11.1518 11.3525 11.2169 11.3079L11.1563 11.2742ZM6.95129 8.99776L5.8905 12.1438L7.04119 9.10562L6.95129 8.99776ZM11.1563 11.2742C11.1106 11.2629 11.0639 11.2561 11.0169 11.2539C10.9602 11.2472 10.9028 11.2472 10.8461 11.2539C10.7772 11.2655 10.709 11.2805 10.6416 11.2989C10.5692 11.3244 10.4935 11.3395 10.4168 11.3438C10.3353 11.3461 10.2542 11.3552 10.1741 11.3708C10.0901 11.3837 10.0069 11.4009 9.92466 11.4225C9.88419 11.4336 9.84441 11.4471 9.80554 11.4629L9.78082 11.4764C9.77358 11.4801 9.7668 11.4846 9.76059 11.4899C9.74726 11.5044 9.73661 11.5211 9.72913 11.5393C9.69546 11.6178 9.6684 11.699 9.64822 11.782C9.628 11.8629 9.61002 11.9438 9.59428 12.018C9.57855 12.0921 9.56282 12.1663 9.55383 12.2427C9.54181 12.3373 9.53655 12.4327 9.5381 12.5281C9.55893 12.3938 9.5959 12.2625 9.64822 12.1371C9.77857 11.8472 9.85723 11.6449 9.85723 11.6449C9.96445 11.6618 10.0736 11.6618 10.1809 11.6449C10.3157 11.6067 10.4798 11.4405 10.6438 11.4449C10.765 11.4525 10.8866 11.4396 11.0034 11.4067C11.0796 11.3859 11.1518 11.3525 11.2169 11.3079L11.1563 11.2742ZM6.95129 8.99776L5.8905 12.1438L7.04119 9.10562L6.95129 8.99776ZM11.1563 11.2742C11.1106 11.2629 11.0639 11.2561 11.0169 11.2539C10.9602 11.2472 10.9028 11.2472 10.8461 11.2539C10.7772 11.2655 10.709 11.2805 10.6416 11.2989C10.5692 11.3244 10.4935 11.3395 10.4168 11.3438C10.3353 11.3461 10.2542 11.3552 10.1741 11.3708C10.0901 11.3837 10.0069 11.4009 9.92466 11.4225C9.88419 11.4336 9.84441 11.4471 9.80554 11.4629L9.78082 11.4764C9.77358 11.4801 9.7668 11.4846 9.76059 11.4899C9.74726 11.5044 9.73661 11.5211 9.72913 11.5393C9.69546 11.6178 9.6684 11.699 9.64822 11.782C9.628 11.8629 9.61002 11.9438 9.59428 12.018C9.57855 12.0921 9.56282 12.1663 9.55383 12.2427C9.54181 12.3373 9.53655 12.4327 9.5381 12.5281C9.55893 12.3938 9.5959 12.2625 9.64822 12.1371C9.77857 11.8472 9.85723 11.6449 9.85723 11.6449C9.96445 11.6618 10.0736 11.6618 10.1809 11.6449C10.3157 11.6067 10.4798 11.4405 10.6438 11.4449C10.765 11.4525 10.8866 11.4396 11.0034 11.4067C11.0796 11.3859 11.1518 11.3525 11.2169 11.3079L11.1563 11.2742ZM6.95129 8.99776L5.8905 12.1438L7.04119 9.10562L6.95129 8.99776ZM11.1563 11.2742C11.1106 11.2629 11.0639 11.2561 11.0169 11.2539C10.9602 11.2472 10.9028 11.2472 10.8461 11.2539C10.7772 11.2655 10.709 11.2805 10.6416 11.2989C10.5692 11.3244 10.4935 11.3395 10.4168 11.3438C10.3353 11.3461 10.2542 11.3552 10.1741 11.3708C10.0901 11.3837 10.0069 11.4009 9.92466 11.4225C9.88419 11.4336 9.84441 11.4471 9.80554 11.4629L9.78082 11.4764C9.77358 11.4801 9.7668 11.4846 9.76059 11.4899C9.74726 11.5044 9.73661 11.5211 9.72913 11.5393C9.69546 11.6178 9.6684 11.699 9.64822 11.782C9.628 11.8629 9.61002 11.9438 9.59428 12.018C9.57855 12.0921 9.56282 12.1663 9.55383 12.2427C9.54181 12.3373 9.53655 12.4327 9.5381 12.5281C9.55893 12.3938 9.5959 12.2625 9.64822 12.1371C9.77857 11.8472 9.85723 11.6449 9.85723 11.6449C9.96445 11.6618 10.0736 11.6618 10.1809 11.6449C10.3157 11.6067 10.4798 11.4405 10.6438 11.4449C10.765 11.4525 10.8866 11.4396 11.0034 11.4067C11.0796 11.3859 11.1518 11.3525 11.2169 11.3079L11.1563 11.2742ZM6.95129 8.99776L5.8905 12.1438L7.04119 9.10562L6.95129 8.99776ZM11.1563 11.2742C11.1106 11.2629 11.0639 11.2561 11.0169 11.2539C10.9602 11.2472 10.9028 11.2472 10.8461 11.2539C10.7772 11.2655 10.709 11.2805 10.6416 11.2989C10.5692 11.3244 10.4935 11.3395 10.4168 11.3438C10.3353 11.3461 10.2542 11.3552 10.1741 11.3708C10.0901 11.3837 10.0069 11.4009 9.92466 11.4225C9.88419 11.4336 9.84441 11.4471 9.80554 11.4629L9.78082 11.4764C9.77358 11.4801 9.7668 11.4846 9.76059 11.4899C9.74726 11.5044 9.73661 11.5211 9.72913 11.5393C9.69546 11.6178 9.6684 11.699 9.64822 11.782C9.628 11.8629 9.61002 11.9438 9.59428 12.018C9.57855 12.0921 9.56282 12.1663 9.55383 12.2427C9.54181 12.3373 9.53655 12.4327 9.5381 12.5281C9.55893 12.3938 9.5959 12.2625 9.64822 12.1371C9.77857 11.8472 9.85723 11.6449 9.85723 11.6449C9.96445 11.6618 10.0736 11.6618 10.1809 11.6449C10.3157 11.6067 10.4798 11.4405 10.6438 11.4449C10.765 11.4525 10.8866 11.4396 11.0034 11.4067C11.0796 11.3859 11.1518 11.3525 11.2169 11.3079L11.1563 11.2742ZM6.95129 8.99776L5.8905 12.1438L7.04119 9.10562L6.95129 8.99776ZM11.1563 11.2742C11.1106 11.2629 11.0639 11.2561 11.0169 11.2539C10.9602 11.2472 10.9028 11.2472 10.8461 11.2539C10.7772 11.2655 10.709 11.2805 10.6416 11.2989C10.5692 11.3244 10.4935 11.3395 10.4168 11.3438C10.3353 11.3461 10.2542 11.3552 10.1741 11.3708C10.0901 11.3837 10.0069 11.4009 9.92466 11.4225C9.88419 11.4336 9.84441 11.4471 9.80554 11.4629L9.78082 11.4764C9.77358 11.4801 9.7668 11.4846 9.76059 11.4899C9.74726 11.5044 9.73661 11.5211 9.72913 11.5393C9.69546 11.6178 9.6684 11.699 9.64822 11.782C9.628 11.8629 9.61002 11.9438 9.59428 12.018C9.57855 12.0921 9.56282 12.1663 9.55383 12.2427C9.54181 12.3373 9.53655 12.4327 9.5381 12.5281C9.55893 12.3938 9.5959 12.2625 9.64822 12.1371C9.77857 11.8472 9.85723 11.6449 9.85723 11.6449C9.96445 11.6618 10.0736 11.6618 10.1809 11.6449C10.3157 11.6067 10.4798 11.4405 10.6438 11.4449C10.765 11.4525 10.8866 11.4396 11.0034 11.4067C11.0796 11.3859 11.1518 11.3525 11.2169 11.3079L11.1563 11.2742ZM6.95129 8.99776L5.8905 12.1438L7.04119 9.10562L6.95129 8.99776ZM11.1563 11.2742C11.1106 11.2629 11.0639 11.2561 11.0169 11.2539C10.9602 11.2472 10.9028 11.2472 10.8461 11.2539C10.7772 11.2655 10.709 11.2805 10.6416 11.2989C10.5692 11.3244 10.4935 11.3395 10.4168 11.3438C10.3353 11.3461 10.2542 11.3552 10.1741 11.3708C10.0901 11.3837 10.0069 11.4009 9.92466 11.4225C9.88419 11.4336 9.84441 11.4471 9.80554 11.4629L9.78082 11.4764C9.77358 11.4801 9.7668 11.4846 9.76059 11.4899C9.74726 11.5044 9.73661 11.5211 9.72913 11.5393C9.69546 11.6178 9.6684 11.699 9.64822 11.782C9.628 11.8629 9.61002 11.9438 9.59428 12.018C9.57855 12.0921 9.56282 12.1663 9.55383 12.2427C9.54181 12.3373 9.53655 12.4327 9.5381 12.5281C9.55893 12.3938 9.5959 12.2625 9.64822 12.1371C9.77857 11.8472 9.85723 11.6449 9.85723 11.6449C9.96445 11.6618 10.0736 11.6618 10.1809 11.6449C10.3157 11.6067 10.4798 11.4405 10.6438 11.4449C10.765 11.4525 10.8866 11.4396 11.0034 11.4067C11.0796 11.3859 11.1518 11.3525 11.2169 11.3079L11.1563 11.2742ZM6.95129 8.99776L5.8905 12.1438L7.04119 9.10562L6.95129 8.99776ZM11.1563 11.2742C11.1106 11.2629 11.0639 11.2561 11.0169 11.2539C10.9602 11.2472 10.9028 11.2472 10.8461 11.2539C10.7772 11.2655 10.709 11.2805 10.6416 11.2989C10.5692 11.3244 10.4935 11.3395 10.4168 11.3438C10.3353 11.3461 10.2542 11.3552 10.1741 11.3708C10.0901 11.3837 10.0069 11.4009 9.92466 11.4225C9.88419 11.4336 9.84441 11.4471 9.80554 11.4629L9.78082 11.4764C9.77358 11.4801 9.7668 11.4846 9.76059 11.4899C9.74726 11.5044 9.73661 11.5211 9.72913 11.5393C9.69546 11.6178 9.6684 11.699 9.64822 11.782C9.628 11.8629 9.61002 11.9438 9.59428 12.018C9.57855 12.0921 9.56282 12.1663 9.55383 12.2427C9.54181 12.3373 9.53655 12.4327 9.5381 12.5281C9.55893 12.3938 9.5959 12.2625 9.64822 12.1371C9.77857 11.8472 9.85723 11.6449 9.85723 11.6449C9.96445 11.6618 10.0736 11.6618 10.1809 11.6449C10.3157 11.6067 10.4798 11.4405 10.6438 11.4449C10.765 11.4525 10.8866 11.4396 11.0034 11.4067C11.0796 11.3859 11.1518 11.3525 11.2169 11.3079L11.1563 11.2742ZM6.95129 8.99776L5.8905 12.1438L7.04119 9.10562L6.95129 8.99776ZM11.1563 11.2742C11.1106 11.2629 11.0639 11.2561 11.0169 11.2539C10.9602 11.2472 10.9028 11.2472 10.8461 11.2539C10.7772 11.2655 10.709 11.2805 10.6416 11.2989C10.5692 11.3244 10.4935 11.3395 10.4168 11.3438C10.3353 11.3461 10.2542 11.3552 10.1741 11.3708C10.0901 11.3837 10.0069 11.4009 9.92466 11.4225C9.88419 11.4336 9.84441 11.4471 9.80554 11.4629L9.78082 11.4764C9.77358 11.4801 9.7668 11.4846 9.76059 11.4899C9.74726 11.5044 9.73661 11.5211 9.72913 11.5393C9.69546 11.6178 9.6684 11.699 9.64822 11.782C9.628 11.8629 9.61002 11.9438 9.59428 12.018C9.57855 12.0921 9.56282 12.1663 9.55383 12.2427C9.54181 12.3373 9.53655 12.4327 9.5381 12.5281C9.55893 12.3938 9.5959 12.2625 9.64822 12.1371C9.77857 11.8472 9.85723 11.6449 9.85723 11.6449C9.96445 11.6618 10.0736 11.6618 10.1809 11.6449C10.3157 11.6067 10.4798 11.4405 10.6438 11.4449C10.765 11.4525 10.8866 11.4396 11.0034 11.4067C11.0796 11.3859 11.1518 11.3525 11.2169 11.3079L11.1563 11.2742ZM6.95129 8.99776L5.8905 12.1438L7.04119 9.10562L6.95129 8.99776ZM11.1563 11.2742C11.1106 11.2629 11.0639 11.2561 11.0169 11.2539C10.9602 11.2472 10.9028 11.2472 10.8461 11.2539C10.7772 11.2655 10.709 11.2805 10.6416 11.2989C10.5692 11.3244 10.4935 11.3395 10.4168 11.3438C10.3353 11.3461 10.2542 11.3552 10.1741 11.3708C10.0901 11.3837 10.0069 11.4009 9.92466 11.4225C9.88419 11.4336 9.84441 11.4471 9.80554 11.4629L9.78082 11.4764C9.77358 11.4801 9.7668 11.4846 9.76059 11.4899C9.74726 11.5044 9.73661 11.5211 9.72913 11.5393C9.69546 11.6178 9.6684 11.699 9.64822 11.782C9.628 11.8629 9.61002 11.9438 9.59428 12.018C9.57855 12.0921 9.56282 12.1663 9.55383 12.2427C9.54181 12.3373 9.53655 12.4327 9.5381 12.5281C9.55893 12.3938 9.5959 12.2625 9.64822 12.1371C9.77857 11.8472 9.85723 11.6449 9.85723 11.6449C9.96445 11.6618 10.0736 11.6618 10.1809 11.6449C10.3157 11.6067 10.4798 11.4405 10.6438 11.4449C10.765 11.4525 10.8866 11.4396 11.0034 11.4067C11.0796 11.3859 11.1518 11.3525 11.2169 11.3079L11.1563 11.2742ZM6.95129 8.99776L5.8905 12.1438L7.04119 9.10562L6.95129 8.99776ZM11.1563 11.2742C11.1106 11.2629 11.0639 11.2561 11.0169 11.2539C10.9602 11.2472 10.9028 11.2472 10.8461 11.2539C10.7772 11.2655 10.709 11.2805 10.6416 11.2989C10.5692 11.3244 10.4935 11.3395 10.4168 11.3438C10.3353 11.3461 10.2542 11.3552 10.1741 11.3708C10.0901 11.3837 10.0069 11.4009 9.92466 11.4225C9.88419 11.4336 9.84441 11.4471 9.80554 11.4629L9.78082 11.4764C9.77358 11.4801 9.7668 11.4846 9.76059 11.4899C9.74726 11.5044 9.73661 11.5211 9.72913 11.5393C9.69546 11.6178 9.6684 11.699 9.64822 11.782C9.628 11.8629 9.61002 11.9438 9.59428 12.018C9.57855 12.0921 9.56282 12.1663 9.55383 12.2427C9.54181 12.3373 9.53655 12.4327 9.5381 12.5281C9.55893 12.3938 9.5959 12.2625 9.64822 12.1371C9.77857 11.8472 9.85723 11.6449 9.85723 11.6449C9.96445 11.6618 10.0736 11.6618 10.1809 11.6449C10.3157 11.6067 10.4798 11.4405 10.6438 11.4449C10.765 11.4525 10.8866 11.4396 11.0034 11.4067C11.0796 11.3859 11.1518 11.3525 11.2169 11.3079L11.1563 11.2742ZM6.95129 8.99776L5.8905 12.1438L7.04119 9.10562L6.95129 8.99776ZM11.1563 11.2742C11.1106 11.2629 11.0639 11.2561 11.0169 11.2539C10.9602 11.2472 10.9028 11.2472 10.8461 11.2539C10.7772 11.2655 10.709 11.2805 10.6416 11.2989C10.5692 11.3244 10.4935 11.3395 10.4168 11.3438C10.3353 11.3461 10.2542 11.3552 10.1741 11.3708C10.0901 11.3837 10.0069 11.4009 9.92466 11.4225C9.88419 11.4336 9.84441 11.4471 9.80554 11.4629L9.78082 11.4764C9.77358 11.4801 9.7668 11.4846 9.76059 11.4899C9.74726 11.5044 9.73661 11.5211 9.72913 11.5393C9.69546 11.6178 9.6684 11.699 9.64822 11.782C9.628 11.8629 9.61002 11.9438 9.59428 12.018C9.57855 12.0921 9.56282 12.1663 9.55383 12.2427C9.54181 12.3373 9.53655 12.4327 9.5381 12.5281C9.55893 12.3938 9.5959 12.2625 9.64822 12.1371C9.77857 11.8472 9.85723 11.6449 9.85723 11.6449C9.96445 11.6618 10.0736 11.6618 10.1809 11.6449C10.3157 11.6067 10.4798 11.4405 10.6438 11.4449C10.765 11.4525 10.8866 11.4396 11.0034 11.4067C11.0796 11.3859 11.1518 11.3525 11.2169 11.3079L11.1563 11.2742ZM6.95129 8.99776L5.8905 12.1438L7.04119 9.10562L6.95129 8.99776ZM11.1563 11.2742C11.1106 11.2629 11.0639 11.2561 11.0169 11.2539C10.9602 11.2472 10.9028 11.2472 10.8461 11.2539C10.7772 11.2655 10.709 11.2805 10.6416 11.2989C10.5692 11.3244 10.4935 11.3395 10.4168 11.3438C10.3353 11.3461 10.2542 11.3552 10.1741 11.3708C10.0901 11.3837 10.0069 11.4009 9.92466 11.4225C9.88419 11.4336 9.84441 11.4471 9.80554 11.4629L9.78082 11.4764C9.77358 11.4801 9.7668 11.4846 9.76059 11.4899C9.74726 11.5044 9.73661 11.5211 9.72913 11.5393C9.69546 11.6178 9.6684 11.699 9.64822 11.782C9.628 11.8629 9.61002 11.9438 9.59428 12.018C9.57855 12.0921 9.56282 12.1663 9.55383 12.2427C9.54181 12.3373 9.53655 12.4327 9.5381 12.5281C9.55893 12.3938 9.5959 12.2625 9.64822 12.1371C9.77857 11.8472 9.85723 11.6449 9.85723 11.6449C9.96445 11.6618 10.0736 11.6618 10.1809 11.6449C10.3157 11.6067 10.4798 11.4405 10.6438 11.4449C10.765 11.4525 10.8866 11.4396 11.0034 11.4067C11.0796 11.3859 11.1518 11.3525 11.2169 11.3079L11.1563 11.2742ZM19.5123 6.77978L18.0289 5.65618L16.8063 4.73708L10.8259 0.242703C10.5919 0.0678128 10.3066 -0.024645 10.0146 -0.0202186H9.98759C9.69551 -0.024645 9.41021 0.0678128 9.17626 0.242703L3.19806 4.73708L1.9732 5.67416L0.489889 6.79776C0.361578 6.89346 0.253391 7.01352 0.171514 7.15106C0.0896378 7.2886 0.0356766 7.44093 0.0127167 7.59933C-0.0102433 7.75774 -0.00175196 7.91912 0.0377051 8.07424C0.0771621 8.22936 0.146811 8.37519 0.24267 8.50338C0.277995 8.55064 0.317077 8.59498 0.359537 8.63596C0.472387 8.74977 0.606894 8.83982 0.755118 8.9008C0.903342 8.96178 1.06228 8.99246 1.22256 8.99102C1.48918 8.98747 1.74731 8.8967 1.95747 8.73259L2.61148 8.2427V19.0921C2.61443 19.3316 2.71163 19.5602 2.88201 19.7284C3.05239 19.8967 3.28222 19.991 3.52169 19.991H9.6662C9.6662 19.991 9.6662 19.991 9.6662 19.973C9.6662 19.9236 9.6662 19.973 9.63474 19.9888C9.65047 19.8202 11.0169 17.2921 11.0079 17.0202C11.0079 16.6899 10.9742 16.7056 10.9158 16.6202C10.8573 16.5348 10.4888 16.4607 10.4888 16.4607L10.6056 16.4472C10.6481 16.443 10.6902 16.4355 10.7315 16.4247C10.8252 16.4241 10.917 16.3977 10.9967 16.3483C11.0375 16.3196 11.0705 16.2811 11.0925 16.2364C11.1145 16.1916 11.1248 16.142 11.1225 16.0921C11.2067 15.8779 11.2427 15.6477 11.2282 15.418C11.1932 15.2191 11.1265 15.0271 11.0304 14.8494L10.6236 13.9708L10.5472 13.7461C10.5404 13.7166 10.5247 13.69 10.5023 13.6697C10.464 13.6405 10.3899 13.6494 10.3427 13.6292C10.3156 13.6239 10.2911 13.6097 10.273 13.5888C10.3326 13.5783 10.3897 13.557 10.4416 13.5258C10.545 13.4584 10.6056 13.2854 10.6798 13.1865C10.7675 13.071 10.8729 12.9702 10.9922 12.8876C11.181 12.7618 11.3203 12.5528 11.4844 12.5775C11.5492 12.5869 11.6145 12.5929 11.6799 12.5955C11.7046 12.5955 11.8889 12.5955 11.799 12.5124C11.8687 12.5753 12.0103 12.6023 11.9339 12.7528C11.9026 12.7916 11.8628 12.8228 11.8176 12.8438C11.7724 12.8648 11.723 12.8752 11.6732 12.8742C11.5961 12.8682 11.5203 12.8508 11.4484 12.8225C11.4251 12.8119 11.3998 12.8065 11.3743 12.8067C11.3536 12.8108 11.3339 12.8184 11.3158 12.8292C11.1137 12.9276 10.9415 13.0781 10.8169 13.2652L10.8394 13.2449C10.6753 13.7933 11.2349 14.4787 11.4057 14.9303C11.5765 15.382 11.4192 15.8023 11.199 16.3798C11.0641 16.7326 11.1338 16.6494 11.1136 17.0247L11.127 17.1933C11.1136 17.4315 9.81678 19.6899 9.76059 20H16.4849C16.7234 20 16.952 19.9053 17.1206 19.7367C17.2892 19.5682 17.3839 19.3395 17.3839 19.1011V8.2427L18.0402 8.73259C18.2996 8.91925 18.6219 8.9967 18.9378 8.9483C19.2537 8.8999 19.5381 8.72951 19.7297 8.47375C19.9213 8.21799 20.0049 7.89726 19.9626 7.58051C19.9203 7.26376 19.7553 6.97625 19.5033 6.77978H19.5123ZM11.4462 13.7214C11.5407 13.9655 11.6034 14.2208 11.6327 14.4809C11.6327 14.5214 11.608 14.982 11.5541 14.9573C11.5001 14.9326 11.4619 14.7506 11.4439 14.7101C11.4109 14.6432 11.3733 14.5787 11.3316 14.5169C11.2417 14.3753 11.1832 14.2067 11.1068 14.0674C11.0149 13.9134 10.9532 13.7434 10.9248 13.5663C10.8821 13.1933 11.172 12.9865 11.4507 12.8652C11.4757 12.8948 11.5087 12.9165 11.5458 12.9277C11.5829 12.9388 11.6225 12.939 11.6597 12.9281C11.6237 13.0315 11.59 13.1371 11.5563 13.2427C11.5226 13.3483 11.4102 13.5303 11.426 13.6562C11.4307 13.6785 11.4375 13.7003 11.4462 13.7214ZM5.84555 9.51461C5.85903 9.44495 5.87027 9.37529 5.88375 9.30338C5.89724 9.23147 5.91297 9.16405 5.93095 9.09439C5.96241 8.95281 6.00062 8.81349 6.04332 8.6809C6.07479 8.58428 6.1085 8.4809 6.14895 8.38203C6.12198 8.4809 6.09951 8.57978 6.07254 8.68315L6.02085 8.90787C6.03658 8.83821 6.05456 8.76854 6.07254 8.69663C6.09726 8.58428 6.13097 8.47192 6.16019 8.35731C6.16019 8.33259 6.17817 8.30787 6.18716 8.28315C6.16468 8.42697 6.13547 8.5663 6.11075 8.70562L6.0186 9.12585C5.99163 9.26517 5.96017 9.4045 5.92646 9.54607L5.86802 9.82248C5.86802 9.72585 5.88825 9.63147 5.90398 9.53484C5.92646 9.39551 5.95792 9.25618 5.98039 9.11686C5.99238 9.04795 6.00587 8.97828 6.02085 8.90787L5.7961 9.94607C5.80509 9.8045 5.82307 9.65843 5.84555 9.51461ZM5.47921 10.0697C5.47921 9.99776 5.47921 9.93259 5.49719 9.84495C5.51517 9.75731 5.51517 9.70787 5.52416 9.62023C5.54514 9.4809 5.56986 9.34158 5.59833 9.20225C5.62754 9.06293 5.6635 8.92135 5.70396 8.78652C5.70396 8.8 5.70396 8.81349 5.70396 8.82922C5.67343 8.95209 5.65016 9.07665 5.63429 9.20225C5.61181 9.34158 5.59383 9.4809 5.5781 9.62472C5.5781 9.6809 5.56686 9.73708 5.56237 9.79326C5.56237 9.73933 5.5781 9.68315 5.58484 9.62697L5.64777 9.21124L5.70171 8.86517C5.70171 8.97753 5.67924 9.08989 5.67025 9.20899L5.6253 9.63371C5.61181 9.77079 5.59159 9.91012 5.57585 10.0607L5.53091 10.4427C5.53091 10.3124 5.53091 10.1843 5.53091 10.0517C5.53091 9.9663 5.54439 9.8809 5.55113 9.79326C5.5399 9.8809 5.5309 9.9663 5.51742 10.0517L5.46123 10.4742H5.51517H5.45674C5.46573 10.3663 5.47022 10.2157 5.47921 10.0697ZM5.32863 14.3214C5.29124 14.1087 5.30355 13.8903 5.36459 13.6832C5.40055 13.4584 5.4455 13.2337 5.4927 13.009C5.52191 12.8697 5.55338 12.7281 5.58484 12.5978C5.63481 12.4728 5.66514 12.3409 5.67474 12.2067C5.67039 12.1756 5.66363 12.1448 5.65451 12.1146C5.60968 11.8488 5.65812 11.5757 5.79161 11.3416C5.75758 11.4698 5.74244 11.6023 5.74666 11.7348C5.74666 12.0584 5.73542 12.382 5.74666 12.7056C5.74666 12.8517 5.76014 12.9955 5.76689 13.1416C5.78947 13.2448 5.79554 13.351 5.78487 13.4562C5.71268 13.5804 5.67469 13.7215 5.67474 13.8652V13.8899C5.67029 13.9557 5.67029 14.0218 5.67474 14.0876L5.32863 14.3214ZM5.77812 14.2674C5.77812 14.2405 5.77812 14.218 5.76239 14.1933C5.72868 13.9685 5.74666 13.4854 6.02759 13.618C6.25233 13.7303 6.25233 14.0292 6.25233 14.2449C6.2286 14.2223 6.20021 14.2052 6.16916 14.1947C6.1381 14.1842 6.10512 14.1807 6.07254 14.1843C6.04417 14.1876 6.0155 14.1876 5.98714 14.1843C5.97365 14.0607 5.96241 13.9596 5.95342 13.8787C5.94443 13.7978 5.9287 13.7191 5.9287 13.7191C5.9287 13.7191 5.9287 13.7753 5.9287 13.8787C5.9287 13.982 5.9287 14.0607 5.94219 14.1843H5.92421C5.90848 14.1888 5.77812 14.2449 5.77812 14.2674ZM6.25908 14.3596L6.29953 14.7258C6.21032 14.6969 6.11686 14.6832 6.0231 14.6854C6.00736 14.5506 5.99388 14.4157 5.98039 14.3011V14.2787C6.03095 14.262 6.08534 14.2608 6.13658 14.2752C6.18783 14.2896 6.23361 14.319 6.26807 14.3596H6.25908ZM5.80959 14.3843C5.84939 14.3462 5.89586 14.3157 5.94668 14.2944C5.94668 14.4225 5.96241 14.5596 5.96691 14.6944C5.91722 14.7125 5.87146 14.74 5.83206 14.7753L5.80959 14.3843ZM6.03433 15.9573C6.01214 15.9421 5.98678 15.9321 5.96017 15.9281C5.94219 15.7483 5.92196 15.5685 5.90173 15.3888C5.86388 15.2421 5.84797 15.0907 5.85454 14.9393C5.88141 14.8856 5.92365 14.841 5.9759 14.8112L5.98714 14.8989C5.98714 15.0045 5.98714 15.1236 6.00961 15.236C6.03208 15.3483 6.02759 15.4607 6.03658 15.5865L6.0658 15.9348V15.9775L6.03433 15.9573ZM6.15345 16.0315C6.15345 15.9955 6.15345 15.9618 6.15345 15.9258L6.11524 15.5843L6.08378 15.236C6.08378 15.1214 6.0613 15.0112 6.04782 14.8989C6.04782 14.8629 6.04782 14.827 6.03658 14.7888C6.08629 14.7822 6.13682 14.7858 6.1851 14.7993C6.23339 14.8128 6.27843 14.836 6.31751 14.8674C6.35061 15.0148 6.36421 15.1659 6.35796 15.3169C6.39842 15.6584 6.42764 15.991 6.45685 16.3438C6.37992 16.2197 6.2753 16.1151 6.1512 16.0382L6.15345 16.0315ZM8.6099 18.2135C8.47506 18.3933 7.39853 19.6517 7.29515 19.9663C7.21397 19.9487 7.13095 19.9412 7.04793 19.9438C7.04793 19.9079 6.95354 20.0112 6.96028 19.9798C7.04343 19.6787 8.20761 18.3685 8.37392 18.1506C8.82075 17.6238 9.30927 17.1338 9.83476 16.6854C9.89994 16.6315 10.0865 16.4854 10.0775 16.3978C10.0573 15.9483 10.0146 15.4809 9.94938 15.027C9.86024 14.6814 9.73127 14.3473 9.56507 14.0315C9.54709 14 9.51787 13.9506 9.48416 13.8854C9.41403 13.7487 9.35901 13.6048 9.3201 13.4562C9.31118 13.4148 9.30666 13.3726 9.30661 13.3303C9.3044 13.3087 9.3044 13.2868 9.30661 13.2652C9.3055 13.245 9.3055 13.2247 9.30661 13.2045C9.31107 13.1661 9.32013 13.1284 9.33358 13.0921C9.34515 13.0599 9.35866 13.0284 9.37403 12.9978C9.39649 12.9534 9.42526 12.9125 9.45944 12.8764C9.47046 12.8627 9.48331 12.8506 9.49764 12.8405L9.46843 12.8809C9.41557 12.9498 9.38224 13.0316 9.37196 13.1178C9.36168 13.204 9.37481 13.2914 9.40999 13.3708C9.44097 13.5707 9.5179 13.7607 9.63474 13.9258C9.95998 14.512 10.1432 15.1662 10.1696 15.836C10.1699 15.9357 10.1804 16.0351 10.2011 16.1326C10.2086 16.2073 10.2086 16.2826 10.2011 16.3573C10.1944 16.5169 8.93578 17.7663 8.6099 18.2135ZM7.40078 11.4405C7.52017 10.9119 7.76015 10.4182 8.10198 9.99776C8.92005 9.01798 9.846 8.58652 10.3494 8.25169C10.8529 7.91686 11.39 7.83821 11.5698 7.89663C11.7255 7.97942 11.8624 8.09341 11.9721 8.23147L13.2756 9.90787C13.2756 9.90787 12.8823 9.8045 12.0417 10.5191C11.796 10.7356 11.5853 10.9888 11.417 11.2697C11.2447 11.1755 11.0515 11.126 10.8551 11.1258C10.6255 11.1773 10.3928 11.2134 10.1584 11.2337C9.97635 11.2202 9.60327 11.2607 9.55608 11.3933C9.46204 11.6593 9.39135 11.933 9.34482 12.2112C9.33019 12.3855 9.33019 12.5606 9.34482 12.7348C9.24558 12.8672 9.17932 13.0212 9.15154 13.1843C9.15346 13.3063 9.17863 13.4268 9.2257 13.5393C9.14452 13.6333 9.06945 13.7324 9.00096 13.836L7.30189 12.2112C7.30444 12.0606 7.31796 11.9104 7.34234 11.7618C7.67946 12.0944 8.8324 13.236 8.96949 13.3685C8.85038 13.2 7.70643 11.8112 7.40078 11.4405ZM11.8237 12.1146C12.0031 12.085 12.1839 12.0655 12.3654 12.0562C12.1537 12.1189 11.9372 12.164 11.7181 12.191C11.5653 12.2067 11.2911 12.191 11.1293 12.191C10.9561 12.2024 10.7871 12.2491 10.6326 12.3281C10.5405 12.4157 10.2371 12.6697 10.1112 12.7775C10.0365 12.836 9.95202 12.8809 9.86173 12.9101C9.86173 12.9101 10.3112 12.4607 10.4483 12.3348C10.5501 12.2237 10.6369 12.0998 10.7068 11.9663C10.7068 11.9663 10.9675 11.9371 11.2057 11.8899C11.3742 11.8398 11.5248 11.7423 11.6395 11.609C11.7383 11.6496 11.843 11.6738 11.9496 11.6809C12.0507 11.6697 12.1272 11.4562 12.1272 11.4562C12.1272 11.4562 12.2755 11.7124 12.1272 11.8652C12.0711 11.9085 12.0061 11.9387 11.9369 11.9535C11.8676 11.9682 11.7959 11.9673 11.7271 11.9506C11.605 12.0288 11.4782 12.0994 11.3473 12.1618L11.2799 12.1865C11.4625 12.1707 11.6441 12.1444 11.8237 12.1079V12.1146ZM9.50439 12.573C9.49427 12.4624 9.49427 12.3511 9.50439 12.2405C9.50439 12.1708 9.52461 12.0966 9.53585 12.0157C9.54709 11.9348 9.56282 11.8584 9.58305 11.7753C9.6001 11.6866 9.62647 11.6 9.66171 11.5169C9.67145 11.4949 9.68432 11.4745 9.69991 11.4562C9.71764 11.4387 9.73814 11.4243 9.76059 11.4135C9.80359 11.3952 9.84792 11.3801 9.89319 11.3685C9.97747 11.3467 10.063 11.3302 10.1494 11.3191C10.2324 11.3034 10.3166 11.2944 10.4011 11.2921C10.4771 11.2884 10.5525 11.2763 10.6259 11.2562C10.6947 11.2391 10.7645 11.2264 10.8349 11.218C10.8938 11.2102 10.9535 11.2102 11.0124 11.218C11.0607 11.2226 11.1083 11.2332 11.154 11.2494L11.2102 11.2742H11.2237C11.2237 11.2742 11.3698 11.3214 11.3563 11.3865C11.2956 11.427 11.2349 11.4652 11.172 11.5011L11.3361 11.4674L11.5451 11.4292C11.581 11.4292 11.617 11.409 11.6462 11.4067H11.7069H11.7608C11.8237 11.4067 11.8867 11.4067 11.9474 11.4202L12.0912 11.4382H11.9563H11.7698C11.7386 11.4326 11.7066 11.4326 11.6754 11.4382C11.6385 11.45 11.601 11.4598 11.563 11.4674C11.4147 11.4921 11.2686 11.5079 11.1608 11.5191H11.1248C11.0057 11.5865 10.8798 11.6494 10.754 11.7056C10.5292 11.7955 10.3809 11.7955 10.2011 12C10.0213 12.2045 9.81903 12.4382 9.69991 12.6C9.64002 12.6886 9.56373 12.7648 9.47517 12.8247C9.47947 12.7389 9.48848 12.6534 9.50214 12.5685L9.50439 12.573ZM9.29537 13.6966C9.31571 13.747 9.33975 13.7959 9.36729 13.8427L9.44146 13.9461C9.35797 13.9633 9.27257 13.9693 9.1875 13.964C9.14474 13.9605 9.10366 13.9458 9.06838 13.9214C9.06838 13.9214 9.2302 13.6607 9.29537 13.6854V13.6966ZM12.4058 12.4674C12.3507 12.5245 12.2842 12.5693 12.2106 12.5991C12.1371 12.6289 12.0581 12.643 11.9788 12.6405C11.953 12.5924 11.9169 12.5508 11.8729 12.5185C11.829 12.4862 11.7784 12.4642 11.7249 12.4539H11.6889C11.5968 12.4539 11.4911 12.4539 11.3788 12.4539C11.2608 12.4521 11.143 12.4649 11.0282 12.4921C10.9711 12.5074 10.9166 12.5308 10.8663 12.5618C10.8162 12.5938 10.7689 12.6298 10.7247 12.6697C10.6843 12.7056 10.6416 12.7438 10.6011 12.7753C10.5604 12.8059 10.5176 12.8337 10.473 12.8584C10.3944 12.9056 10.327 12.9416 10.2798 12.9663L10.2056 13.0045L10.2798 12.9641C10.327 12.9393 10.3921 12.9011 10.4685 12.8517L10.5966 12.7641C10.6411 12.7255 10.6831 12.6842 10.7225 12.6405C10.7667 12.5993 10.814 12.5618 10.8641 12.5281C10.9157 12.495 10.9717 12.4693 11.0304 12.4517C11.146 12.4244 11.2646 12.4123 11.3832 12.4157C11.4776 12.4157 11.5675 12.4157 11.6462 12.4157C11.8709 12.3933 12.0732 12.3708 12.1496 12.3528C12.2822 12.3236 12.453 12.2225 12.4688 12.1281C12.4864 12.1837 12.4899 12.2428 12.4789 12.3001C12.4679 12.3574 12.4428 12.4111 12.4058 12.4562V12.4674ZM12.3114 11.7214C12.3159 11.6638 12.3159 11.6059 12.3114 11.5483C12.8621 10.8921 13.2104 10.3169 13.2509 10.018C13.2778 10.018 13.3026 10.018 13.3295 10.018C13.3722 10.2674 12.9699 10.9393 12.3114 11.7101V11.7214ZM12.4081 8.53484C12.2242 8.29002 12.0221 8.0594 11.8035 7.84495C11.5788 7.66967 11.0416 7.69888 10.4865 7.98652C9.9314 8.27416 8.53574 8.97304 7.62552 10.2854C7.22648 10.8833 7.04991 11.6022 7.12659 12.3169L7.63901 12.8045C7.48011 12.8889 7.32961 12.9882 7.18952 13.1011L6.25009 13.7169C6.21486 13.6301 6.15937 13.5531 6.08827 13.4921C6.04106 13.459 5.98865 13.4339 5.9332 13.418C5.91072 13.2607 5.84105 12.7124 5.82981 12.3663C5.82981 12.0876 5.82981 11.8157 5.84555 11.6607C6.13097 10.7101 6.47708 9.77753 6.80745 8.85394C7.57695 8.55399 8.32101 8.19252 9.03242 7.77304C10.5517 6.9281 13.6959 4.97304 13.6959 4.97304C13.5813 5.98877 12.4081 8.5236 12.4081 8.5236V8.53484ZM9.84824 11.6449C9.95547 11.6618 10.0647 11.6618 10.1719 11.6449C10.3067 11.6067 10.4708 11.4405 10.6349 11.4449C10.756 11.4525 10.8776 11.4396 10.9944 11.4067C11.0706 11.3859 11.1428 11.3525 11.2079 11.3079L11.1563 11.2854C11.1106 11.2741 11.0639 11.2673 11.0169 11.2652C10.9602 11.2585 10.9028 11.2585 10.8461 11.2652C10.7772 11.2767 10.709 11.2917 10.6416 11.3101C10.5692 11.3356 10.4935 11.3508 10.4168 11.3551C10.3353 11.3574 10.2542 11.3664 10.1741 11.382C10.0901 11.3949 10.0069 11.4122 9.92466 11.4337C9.88419 11.4448 9.84441 11.4583 9.80554 11.4742L9.78082 11.4876C9.77358 11.4913 9.7668 11.4959 9.76059 11.5011C9.74726 11.5156 9.73661 11.5324 9.72913 11.5506C9.69546 11.6291 9.6684 11.7103 9.64822 11.7933C9.628 11.8742 9.61002 11.9551 9.59428 12.0292C9.57855 12.1034 9.56282 12.1775 9.55383 12.2539C9.54181 12.3486 9.53655 12.4439 9.5381 12.5393C9.55893 12.405 9.5959 12.2737 9.64822 12.1483C9.76958 11.8472 9.84824 11.6449 9.84824 11.6449ZM5.8905 12.1326L7.04119 9.09439L6.95129 8.99776L5.8905 12.1326ZM11.1563 11.2742C11.1106 11.2629 11.0639 11.2561 11.0169 11.2539C10.9602 11.2472 10.9028 11.2472 10.8461 11.2539C10.7772 11.2655 10.709 11.2805 10.6416 11.2989C10.5692 11.3244 10.4935 11.3395 10.4168 11.3438C10.3353 11.3461 10.2542 11.3552 10.1741 11.3708C10.0901 11.3837 10.0069 11.4009 9.92466 11.4225C9.88419 11.4336 9.84441 11.4471 9.80554 11.4629L9.78082 11.4764C9.77358 11.4801 9.7668 11.4846 9.76059 11.4899C9.74726 11.5044 9.73661 11.5211 9.72913 11.5393C9.69546 11.6178 9.6684 11.699 9.64822 11.782C9.628 11.8629 9.61002 11.9438 9.59428 12.018C9.57855 12.0921 9.56282 12.1663 9.55383 12.2427C9.54181 12.3373 9.53655 12.4327 9.5381 12.5281C9.55893 12.3938 9.5959 12.2625 9.64822 12.1371C9.77857 11.8472 9.85723 11.6449 9.85723 11.6449C9.96445 11.6618 10.0736 11.6618 10.1809 11.6449C10.3157 11.6067 10.4798 11.4405 10.6438 11.4449C10.765 11.4525 10.8866 11.4396 11.0034 11.4067C11.0796 11.3859 11.1518 11.3525 11.2169 11.3079L11.1563 11.2742ZM6.95129 8.99776L5.8905 12.1438L7.04119 9.10562L6.95129 8.99776ZM11.1563 11.2742C11.1106 11.2629 11.0639 11.2561 11.0169 11.2539C10.9602 11.2472 10.9028 11.2472 10.8461 11.2539C10.7772 11.2655 10.709 11.2805 10.6416 11.2989C10.5692 11.3244 10.4935 11.3395 10.4168 11.3438C10.3353 11.3461 10.2542 11.3552 10.1741 11.3708C10.0901 11.3837 10.0069 11.4009 9.92466 11.4225C9.88419 11.4336 9.84441 11.4471 9.80554 11.4629L9.78082 11.4764C9.77358 11.4801 9.7668 11.4846 9.76059 11.4899C9.74726 11.5044 9.73661 11.5211 9.72913 11.5393C9.69546 11.6178 9.6684 11.699 9.64822 11.782C9.628 11.8629 9.61002 11.9438 9.59428 12.018C9.57855 12.0921 9.56282 12.1663 9.55383 12.2427C9.54181 12.3373 9.53655 12.4327 9.5381 12.5281C9.55893 12.3938 9.5959 12.2625 9.64822 12.1371C9.77857 11.8472 9.85723 11.6449 9.85723 11.6449C9.96445 11.6618 10.0736 11.6618 10.1809 11.6449C10.3157 11.6067 10.4798 11.4405 10.6438 11.4449C10.765 11.4525 10.8866 11.4396 11.0034 11.4067C11.0796 11.3859 11.1518 11.3525 11.2169 11.3079L11.1563 11.2742ZM6.95129 8.99776L5.8905 12.1438L7.04119 9.10562L6.95129 8.99776ZM11.1563 11.2742C11.1106 11.2629 11.0639 11.2561 11.0169 11.2539C10.9602 11.2472 10.9028 11.2472 10.8461 11.2539C10.7772 11.2655 10.709 11.2805 10.6416 11.2989C10.5692 11.3244 10.4935 11.3395 10.4168 11.3438C10.3353 11.3461 10.2542 11.3552 10.1741 11.3708C10.0901 11.3837 10.0069 11.4009 9.92466 11.4225C9.88419 11.4336 9.84441 11.4471 9.80554 11.4629L9.78082 11.4764C9.77358 11.4801 9.7668 11.4846 9.76059 11.4899C9.74726 11.5044 9.73661 11.5211 9.72913 11.5393C9.69546 11.6178 9.6684 11.699 9.64822 11.782C9.628 11.8629 9.61002 11.9438 9.59428 12.018C9.57855 12.0921 9.56282 12.1663 9.55383 12.2427C9.54181 12.3373 9.53655 12.4327 9.5381 12.5281C9.55893 12.3938 9.5959 12.2625 9.64822 12.1371C9.77857 11.8472 9.85723 11.6449 9.85723 11.6449C9.96445 11.6618 10.0736 11.6618 10.1809 11.6449C10.3157 11.6067 10.4798 11.4405 10.6438 11.4449C10.765 11.4525 10.8866 11.4396 11.0034 11.4067C11.0796 11.3859 11.1518 11.3525 11.2169 11.3079L11.1563 11.2742ZM6.95129 8.99776L5.8905 12.1438L7.04119 9.10562L6.95129 8.99776ZM11.1563 11.2742C11.1106 11.2629 11.0639 11.2561 11.0169 11.2539C10.9602 11.2472 10.9028 11.2472 10.8461 11.2539C10.7772 11.2655 10.709 11.2805 10.6416 11.2989C10.5692 11.3244 10.4935 11.3395 10.4168 11.3438C10.3353 11.3461 10.2542 11.3552 10.1741 11.3708C10.0901 11.3837 10.0069 11.4009 9.92466 11.4225C9.88419 11.4336 9.84441 11.4471 9.80554 11.4629L9.78082 11.4764C9.77358 11.4801 9.7668 11.4846 9.76059 11.4899C9.74726 11.5044 9.73661 11.5211 9.72913 11.5393C9.69546 11.6178 9.6684 11.699 9.64822 11.782C9.628 11.8629 9.61002 11.9438 9.59428 12.018C9.57855 12.0921 9.56282 12.1663 9.55383 12.2427C9.54181 12.3373 9.53655 12.4327 9.5381 12.5281C9.55893 12.3938 9.5959 12.2625 9.64822 12.1371C9.77857 11.8472 9.85723 11.6449 9.85723 11.6449C9.96445 11.6618 10.0736 11.6618 10.1809 11.6449C10.3157 11.6067 10.4798 11.4405 10.6438 11.4449C10.765 11.4525 10.8866 11.4396 11.0034 11.4067C11.0796 11.3859 11.1518 11.3525 11.2169 11.3079L11.1563 11.2742ZM6.95129 8.99776L5.8905 12.1438L7.04119 9.10562L6.95129 8.99776ZM11.1563 11.2742C11.1106 11.2629 11.0639 11.2561 11.0169 11.2539C10.9602 11.2472 10.9028 11.2472 10.8461 11.2539C10.7772 11.2655 10.709 11.2805 10.6416 11.2989C10.5692 11.3244 10.4935 11.3395 10.4168 11.3438C10.3353 11.3461 10.2542 11.3552 10.1741 11.3708C10.0901 11.3837 10.0069 11.4009 9.92466 11.4225C9.88419 11.4336 9.84441 11.4471 9.80554 11.4629L9.78082 11.4764C9.77358 11.4801 9.7668 11.4846 9.76059 11.4899C9.74726 11.5044 9.73661 11.5211 9.72913 11.5393C9.69546 11.6178 9.6684 11.699 9.64822 11.782C9.628 11.8629 9.61002 11.9438 9.59428 12.018C9.57855 12.0921 9.56282 12.1663 9.55383 12.2427C9.54181 12.3373 9.53655 12.4327 9.5381 12.5281C9.55893 12.3938 9.5959 12.2625 9.64822 12.1371C9.77857 11.8472 9.85723 11.6449 9.85723 11.6449C9.96445 11.6618 10.0736 11.6618 10.1809 11.6449C10.3157 11.6067 10.4798 11.4405 10.6438 11.4449C10.765 11.4525 10.8866 11.4396 11.0034 11.4067C11.0796 11.3859 11.1518 11.3525 11.2169 11.3079L11.1563 11.2742ZM6.95129 8.99776L5.8905 12.1438L7.04119 9.10562L6.95129 8.99776ZM11.1563 11.2742C11.1106 11.2629 11.0639 11.2561 11.0169 11.2539C10.9602 11.2472 10.9028 11.2472 10.8461 11.2539C10.7772 11.2655 10.709 11.2805 10.6416 11.2989C10.5692 11.3244 10.4935 11.3395 10.4168 11.3438C10.3353 11.3461 10.2542 11.3552 10.1741 11.3708C10.0901 11.3837 10.0069 11.4009 9.92466 11.4225C9.88419 11.4336 9.84441 11.4471 9.80554 11.4629L9.78082 11.4764C9.77358 11.4801 9.7668 11.4846 9.76059 11.4899C9.74726 11.5044 9.73661 11.5211 9.72913 11.5393C9.69546 11.6178 9.6684 11.699 9.64822 11.782C9.628 11.8629 9.61002 11.9438 9.59428 12.018C9.57855 12.0921 9.56282 12.1663 9.55383 12.2427C9.54181 12.3373 9.53655 12.4327 9.5381 12.5281C9.55893 12.3938 9.5959 12.2625 9.64822 12.1371C9.77857 11.8472 9.85723 11.6449 9.85723 11.6449C9.96445 11.6618 10.0736 11.6618 10.1809 11.6449C10.3157 11.6067 10.4798 11.4405 10.6438 11.4449C10.765 11.4525 10.8866 11.4396 11.0034 11.4067C11.0796 11.3859 11.1518 11.3525 11.2169 11.3079L11.1563 11.2742ZM6.95129 8.99776L5.8905 12.1438L7.04119 9.10562L6.95129 8.99776ZM11.1563 11.2742C11.1106 11.2629 11.0639 11.2561 11.0169 11.2539C10.9602 11.2472 10.9028 11.2472 10.8461 11.2539C10.7772 11.2655 10.709 11.2805 10.6416 11.2989C10.5692 11.3244 10.4935 11.3395 10.4168 11.3438C10.3353 11.3461 10.2542 11.3552 10.1741 11.3708C10.0901 11.3837 10.0069 11.4009 9.92466 11.4225C9.88419 11.4336 9.84441 11.4471 9.80554 11.4629L9.78082 11.4764C9.77358 11.4801 9.7668 11.4846 9.76059 11.4899C9.74726 11.5044 9.73661 11.5211 9.72913 11.5393C9.69546 11.6178 9.6684 11.699 9.64822 11.782C9.628 11.8629 9.61002 11.9438 9.59428 12.018C9.57855 12.0921 9.56282 12.1663 9.55383 12.2427C9.54181 12.3373 9.53655 12.4327 9.5381 12.5281C9.55893 12.3938 9.5959 12.2625 9.64822 12.1371C9.77857 11.8472 9.85723 11.6449 9.85723 11.6449C9.96445 11.6618 10.0736 11.6618 10.1809 11.6449C10.3157 11.6067 10.4798 11.4405 10.6438 11.4449C10.765 11.4525 10.8866 11.4396 11.0034 11.4067C11.0796 11.3859 11.1518 11.3525 11.2169 11.3079L11.1563 11.2742ZM6.95129 8.99776L5.8905 12.1438L7.04119 9.10562L6.95129 8.99776ZM11.1563 11.2742C11.1106 11.2629 11.0639 11.2561 11.0169 11.2539C10.9602 11.2472 10.9028 11.2472 10.8461 11.2539C10.7772 11.2655 10.709 11.2805 10.6416 11.2989C10.5692 11.3244 10.4935 11.3395 10.4168 11.3438C10.3353 11.3461 10.2542 11.3552 10.1741 11.3708C10.0901 11.3837 10.0069 11.4009 9.92466 11.4225C9.88419 11.4336 9.84441 11.4471 9.80554 11.4629L9.78082 11.4764C9.77358 11.4801 9.7668 11.4846 9.76059 11.4899C9.74726 11.5044 9.73661 11.5211 9.72913 11.5393C9.69546 11.6178 9.6684 11.699 9.64822 11.782C9.628 11.8629 9.61002 11.9438 9.59428 12.018C9.57855 12.0921 9.56282 12.1663 9.55383 12.2427C9.54181 12.3373 9.53655 12.4327 9.5381 12.5281C9.55893 12.3938 9.5959 12.2625 9.64822 12.1371C9.77857 11.8472 9.85723 11.6449 9.85723 11.6449C9.96445 11.6618 10.0736 11.6618 10.1809 11.6449C10.3157 11.6067 10.4798 11.4405 10.6438 11.4449C10.765 11.4525 10.8866 11.4396 11.0034 11.4067C11.0796 11.3859 11.1518 11.3525 11.2169 11.3079L11.1563 11.2742ZM6.95129 8.99776L5.8905 12.1438L7.04119 9.10562L6.95129 8.99776ZM11.1563 11.2742C11.1106 11.2629 11.0639 11.2561 11.0169 11.2539C10.9602 11.2472 10.9028 11.2472 10.8461 11.2539C10.7772 11.2655 10.709 11.2805 10.6416 11.2989C10.5692 11.3244 10.4935 11.3395 10.4168 11.3438C10.3353 11.3461 10.2542 11.3552 10.1741 11.3708C10.0901 11.3837 10.0069 11.4009 9.92466 11.4225C9.88419 11.4336 9.84441 11.4471 9.80554 11.4629L9.78082 11.4764C9.77358 11.4801 9.7668 11.4846 9.76059 11.4899C9.74726 11.5044 9.73661 11.5211 9.72913 11.5393C9.69546 11.6178 9.6684 11.699 9.64822 11.782C9.628 11.8629 9.61002 11.9438 9.59428 12.018C9.57855 12.0921 9.56282 12.1663 9.55383 12.2427C9.54181 12.3373 9.53655 12.4327 9.5381 12.5281C9.55893 12.3938 9.5959 12.2625 9.64822 12.1371C9.77857 11.8472 9.85723 11.6449 9.85723 11.6449C9.96445 11.6618 10.0736 11.6618 10.1809 11.6449C10.3157 11.6067 10.4798 11.4405 10.6438 11.4449C10.765 11.4525 10.8866 11.4396 11.0034 11.4067C11.0796 11.3859 11.1518 11.3525 11.2169 11.3079L11.1563 11.2742ZM6.95129 8.99776L5.8905 12.1438L7.04119 9.10562L6.95129 8.99776ZM11.1563 11.2742C11.1106 11.2629 11.0639 11.2561 11.0169 11.2539C10.9602 11.2472 10.9028 11.2472 10.8461 11.2539C10.7772 11.2655 10.709 11.2805 10.6416 11.2989C10.5692 11.3244 10.4935 11.3395 10.4168 11.3438C10.3353 11.3461 10.2542 11.3552 10.1741 11.3708C10.0901 11.3837 10.0069 11.4009 9.92466 11.4225C9.88419 11.4336 9.84441 11.4471 9.80554 11.4629L9.78082 11.4764C9.77358 11.4801 9.7668 11.4846 9.76059 11.4899C9.74726 11.5044 9.73661 11.5211 9.72913 11.5393C9.69546 11.6178 9.6684 11.699 9.64822 11.782C9.628 11.8629 9.61002 11.9438 9.59428 12.018C9.57855 12.0921 9.56282 12.1663 9.55383 12.2427C9.54181 12.3373 9.53655 12.4327 9.5381 12.5281C9.55893 12.3938 9.5959 12.2625 9.64822 12.1371C9.77857 11.8472 9.85723 11.6449 9.85723 11.6449C9.96445 11.6618 10.0736 11.6618 10.1809 11.6449C10.3157 11.6067 10.4798 11.4405 10.6438 11.4449C10.765 11.4525 10.8866 11.4396 11.0034 11.4067C11.0796 11.3859 11.1518 11.3525 11.2169 11.3079L11.1563 11.2742ZM6.95129 8.99776L5.8905 12.1438L7.04119 9.10562L6.95129 8.99776ZM11.1563 11.2742C11.1106 11.2629 11.0639 11.2561 11.0169 11.2539C10.9602 11.2472 10.9028 11.2472 10.8461 11.2539C10.7772 11.2655 10.709 11.2805 10.6416 11.2989C10.5692 11.3244 10.4935 11.3395 10.4168 11.3438C10.3353 11.3461 10.2542 11.3552 10.1741 11.3708C10.0901 11.3837 10.0069 11.4009 9.92466 11.4225C9.88419 11.4336 9.84441 11.4471 9.80554 11.4629L9.78082 11.4764C9.77358 11.4801 9.7668 11.4846 9.76059 11.4899C9.74726 11.5044 9.73661 11.5211 9.72913 11.5393C9.69546 11.6178 9.6684 11.699 9.64822 11.782C9.628 11.8629 9.61002 11.9438 9.59428 12.018C9.57855 12.0921 9.56282 12.1663 9.55383 12.2427C9.54181 12.3373 9.53655 12.4327 9.5381 12.5281C9.55893 12.3938 9.5959 12.2625 9.64822 12.1371C9.77857 11.8472 9.85723 11.6449 9.85723 11.6449C9.96445 11.6618 10.0736 11.6618 10.1809 11.6449C10.3157 11.6067 10.4798 11.4405 10.6438 11.4449C10.765 11.4525 10.8866 11.4396 11.0034 11.4067C11.0796 11.3859 11.1518 11.3525 11.2169 11.3079L11.1563 11.2742ZM6.95129 8.99776L5.8905 12.1438L7.04119 9.10562L6.95129 8.99776ZM11.1563 11.2742C11.1106 11.2629 11.0639 11.2561 11.0169 11.2539C10.9602 11.2472 10.9028 11.2472 10.8461 11.2539C10.7772 11.2655 10.709 11.2805 10.6416 11.2989C10.5692 11.3244 10.4935 11.3395 10.4168 11.3438C10.3353 11.3461 10.2542 11.3552 10.1741 11.3708C10.0901 11.3837 10.0069 11.4009 9.92466 11.4225C9.88419 11.4336 9.84441 11.4471 9.80554 11.4629L9.78082 11.4764C9.77358 11.4801 9.7668 11.4846 9.76059 11.4899C9.74726 11.5044 9.73661 11.5211 9.72913 11.5393C9.69546 11.6178 9.6684 11.699 9.64822 11.782C9.628 11.8629 9.61002 11.9438 9.59428 12.018C9.57855 12.0921 9.56282 12.1663 9.55383 12.2427C9.54181 12.3373 9.53655 12.4327 9.5381 12.5281C9.55893 12.3938 9.5959 12.2625 9.64822 12.1371C9.77857 11.8472 9.85723 11.6449 9.85723 11.6449C9.96445 11.6618 10.0736 11.6618 10.1809 11.6449C10.3157 11.6067 10.4798 11.4405 10.6438 11.4449C10.765 11.4525 10.8866 11.4396 11.0034 11.4067C11.0796 11.3859 11.1518 11.3525 11.2169 11.3079L11.1563 11.2742ZM6.95129 8.99776L5.8905 12.1438L7.04119 9.10562L6.95129 8.99776ZM11.1563 11.2742C11.1106 11.2629 11.0639 11.2561 11.0169 11.2539C10.9602 11.2472 10.9028 11.2472 10.8461 11.2539C10.7772 11.2655 10.709 11.2805 10.6416 11.2989C10.5692 11.3244 10.4935 11.3395 10.4168 11.3438C10.3353 11.3461 10.2542 11.3552 10.1741 11.3708C10.0901 11.3837 10.0069 11.4009 9.92466 11.4225C9.88419 11.4336 9.84441 11.4471 9.80554 11.4629L9.78082 11.4764C9.77358 11.4801 9.7668 11.4846 9.76059 11.4899C9.74726 11.5044 9.73661 11.5211 9.72913 11.5393C9.69546 11.6178 9.6684 11.699 9.64822 11.782C9.628 11.8629 9.61002 11.9438 9.59428 12.018C9.57855 12.0921 9.56282 12.1663 9.55383 12.2427C9.54181 12.3373 9.53655 12.4327 9.5381 12.5281C9.55893 12.3938 9.5959 12.2625 9.64822 12.1371C9.77857 11.8472 9.85723 11.6449 9.85723 11.6449C9.96445 11.6618 10.0736 11.6618 10.1809 11.6449C10.3157 11.6067 10.4798 11.4405 10.6438 11.4449C10.765 11.4525 10.8866 11.4396 11.0034 11.4067C11.0796 11.3859 11.1518 11.3525 11.2169 11.3079L11.1563 11.2742ZM6.95129 8.99776L5.8905 12.1438L7.04119 9.10562L6.95129 8.99776ZM11.1563 11.2742C11.1106 11.2629 11.0639 11.2561 11.0169 11.2539C10.9602 11.2472 10.9028 11.2472 10.8461 11.2539C10.7772 11.2655 10.709 11.2805 10.6416 11.2989C10.5692 11.3244 10.4935 11.3395 10.4168 11.3438C10.3353 11.3461 10.2542 11.3552 10.1741 11.3708C10.0901 11.3837 10.0069 11.4009 9.92466 11.4225C9.88419 11.4336 9.84441 11.4471 9.80554 11.4629L9.78082 11.4764C9.77358 11.4801 9.7668 11.4846 9.76059 11.4899C9.74726 11.5044 9.73661 11.5211 9.72913 11.5393C9.69546 11.6178 9.6684 11.699 9.64822 11.782C9.628 11.8629 9.61002 11.9438 9.59428 12.018C9.57855 12.0921 9.56282 12.1663 9.55383 12.2427C9.54181 12.3373 9.53655 12.4327 9.5381 12.5281C9.55893 12.3938 9.5959 12.2625 9.64822 12.1371C9.77857 11.8472 9.85723 11.6449 9.85723 11.6449C9.96445 11.6618 10.0736 11.6618 10.1809 11.6449C10.3157 11.6067 10.4798 11.4405 10.6438 11.4449C10.765 11.4525 10.8866 11.4396 11.0034 11.4067C11.0796 11.3859 11.1518 11.3525 11.2169 11.3079L11.1563 11.2742ZM6.95129 8.99776L5.8905 12.1438L7.04119 9.10562L6.95129 8.99776ZM11.1563 11.2742C11.1106 11.2629 11.0639 11.2561 11.0169 11.2539C10.9602 11.2472 10.9028 11.2472 10.8461 11.2539C10.7772 11.2655 10.709 11.2805 10.6416 11.2989C10.5692 11.3244 10.4935 11.3395 10.4168 11.3438C10.3353 11.3461 10.2542 11.3552 10.1741 11.3708C10.0901 11.3837 10.0069 11.4009 9.92466 11.4225C9.88419 11.4336 9.84441 11.4471 9.80554 11.4629L9.78082 11.4764C9.77358 11.4801 9.7668 11.4846 9.76059 11.4899C9.74726 11.5044 9.73661 11.5211 9.72913 11.5393C9.69546 11.6178 9.6684 11.699 9.64822 11.782C9.628 11.8629 9.61002 11.9438 9.59428 12.018C9.57855 12.0921 9.56282 12.1663 9.55383 12.2427C9.54181 12.3373 9.53655 12.4327 9.5381 12.5281C9.55893 12.3938 9.5959 12.2625 9.64822 12.1371C9.77857 11.8472 9.85723 11.6449 9.85723 11.6449C9.96445 11.6618 10.0736 11.6618 10.1809 11.6449C10.3157 11.6067 10.4798 11.4405 10.6438 11.4449C10.765 11.4525 10.8866 11.4396 11.0034 11.4067C11.0796 11.3859 11.1518 11.3525 11.2169 11.3079L11.1563 11.2742ZM6.95129 8.99776L5.8905 12.1438L7.04119 9.10562L6.95129 8.99776ZM11.1563 11.2742C11.1106 11.2629 11.0639 11.2561 11.0169 11.2539C10.9602 11.2472 10.9028 11.2472 10.8461 11.2539C10.7772 11.2655 10.709 11.2805 10.6416 11.2989C10.5692 11.3244 10.4935 11.3395 10.4168 11.3438C10.3353 11.3461 10.2542 11.3552 10.1741 11.3708C10.0901 11.3837 10.0069 11.4009 9.92466 11.4225C9.88419 11.4336 9.84441 11.4471 9.80554 11.4629L9.78082 11.4764C9.77358 11.4801 9.7668 11.4846 9.76059 11.4899C9.74726 11.5044 9.73661 11.5211 9.72913 11.5393C9.69546 11.6178 9.6684 11.699 9.64822 11.782C9.628 11.8629 9.61002 11.9438 9.59428 12.018C9.57855 12.0921 9.56282 12.1663 9.55383 12.2427C9.54181 12.3373 9.53655 12.4327 9.5381 12.5281C9.55893 12.3938 9.5959 12.2625 9.64822 12.1371C9.77857 11.8472 9.85723 11.6449 9.85723 11.6449C9.96445 11.6618 10.0736 11.6618 10.1809 11.6449C10.3157 11.6067 10.4798 11.4405 10.6438 11.4449C10.765 11.4525 10.8866 11.4396 11.0034 11.4067C11.0796 11.3859 11.1518 11.3525 11.2169 11.3079L11.1563 11.2742ZM6.95129 8.99776L5.8905 12.1438L7.04119 9.10562L6.95129 8.99776ZM6.95129 8.99776L5.8905 12.1438L7.04119 9.10562L6.95129 8.99776ZM6.95129 8.99776L5.8905 12.1438L7.04119 9.10562L6.95129 8.99776ZM6.95129 8.99776L5.8905 12.1438L7.04119 9.10562L6.95129 8.99776ZM6.95129 8.99776L5.8905 12.1438L7.04119 9.10562L6.95129 8.99776Z" fill="#154372"/>
</g>
<path d="M17.3333 24L2.66658 24" stroke="#154372" stroke-width="2" stroke-linecap="round"/>
</g>
<defs>
<clipPath id="clip0_721_988">
<rect width="20" height="20" fill="white"/>
</clipPath>
</defs>
</svg>
